# xmcd
#
# Track frame offsets:
#	150
#	26118
#	50124
#	70169
#	101439
#	118164
#	134596
#	154188
#	191345
#	210345
#	235188
#	260510
#	283724
#	296675
#	318961
#	331992
#
# Disc length: 4810 seconds
#
# Revision: 4
# Processed by: cddbd v1.5.2PL0 Copyright (c) Steve Scherf et al.
# Submitted via: EZCDAudioConverter 6.0.0.1
#
DISCID=f312c810
DTITLE=Various Artist - Akella Presents - Blues-Rock - vol.11  CD1 New!
DYEAR=2013
DGENRE=Blues
TTITLE0=JIMMY D'LANE - Hear My Train a Comin'
TTITLE1=GEORGIA BLUES DAWGS - Lies
TTITLE2=RHINO BUCKET - Justified
TTITLE3=SOUTHERN GENTLEMEN - Time Traveler
TTITLE4=SUNSET HEIGHTS - Save Yourself
TTITLE5=ROB TOGNONI - Keep Your Head Above Water
TTITLE6=MICHAEL KATON - Wound Up
TTITLE7=CRAIG ERICKSON - Understanding
TTITLE8=SIDEBURN - Don't wanna let you go
TTITLE9=DAVE MENIKETTI - Lay Me Down
TTITLE10=KEVIN RUSSELL - Alligator Alley
TTITLE11=WALTER TROUT - Empty Eyes
TTITLE12=CUB KODA - Look At That White Girl Dance
TTITLE13=BLINDSIDE BLUES BAND - Catchin' ZS
TTITLE14=BIG BAD BUBBA - Movin' On
TTITLE15=PAUL RODGERS - Standing About Crying
EXTD=
EXTT0=
EXTT1=
EXTT2=
EXTT3=
EXTT4=
EXTT5=
EXTT6=
EXTT7=
EXTT8=
EXTT9=
EXTT10=
EXTT11=
EXTT12=
EXTT13=
EXTT14=
EXTT15=
PLAYORDER=
